<?xml version="1.0" encoding="utf-8"?>
<!-- Generator: Adobe Illustrator 18.1.1, SVG Export Plug-In . SVG Version: 6.00 Build 0)  -->
<!DOCTYPE svg PUBLIC "-//W3C//DTD SVG 1.1//EN" "http://www.w3.org/Graphics/SVG/1.1/DTD/svg11.dtd">
<svg version="1.1" id="Layer_1" xmlns="http://www.w3.org/2000/svg" xmlns:xlink="http://www.w3.org/1999/xlink" x="0px" y="0px"
	 viewBox="0 0 86 100" enable-background="new 0 0 86 100" width="86px" height="100px" xml:space="preserve">
<g fill="#0a303b">
	<path d="M59.8,62.5c3.5-4,5.6-9.2,5.6-14.9c0-12.4-10.1-22.5-22.5-22.5S20.5,35.3,20.5,47.7c0,6.3,2.6,12,6.8,16.1l10.8,16.8
	C38,80.8,38,81,38,81.2l0.7,6.8c0.1,0.8,0.8,1.5,1.7,1.5h6.4c0.8,0,1.6-0.7,1.7-1.5l0.7-6.8c0-0.2,0-0.3,0-0.5L59.8,62.5z
	 M42.9,70.1c2.3,0,4.4-0.3,6.5-1l-4.5,10.6h-2.7l-4.8-10.3C39.1,69.9,41,70.1,42.9,70.1z M47.8,79.7H46l4.7-11
	c2.3-0.8,4.4-2.1,6.2-3.5l-8.5,14.7C48.3,79.8,48.1,79.7,47.8,79.7z M36,69l5,10.7h-1.7c-0.2,0-0.3,0-0.5,0.1L30,66
	C31.8,67.3,33.8,68.3,36,69z"/>
</g>
</svg>
