<?xml version="1.0" encoding="utf-8"?>
<!-- Generator: Adobe Illustrator 18.1.1, SVG Export Plug-In . SVG Version: 6.00 Build 0)  -->
<!DOCTYPE svg PUBLIC "-//W3C//DTD SVG 1.1//EN" "http://www.w3.org/Graphics/SVG/1.1/DTD/svg11.dtd">
<svg version="1.1" id="Layer_1" xmlns="http://www.w3.org/2000/svg" xmlns:xlink="http://www.w3.org/1999/xlink" x="0px" y="0px"
	 viewBox="0 0 110 113" enable-background="new 0 0 110 113" width="110px" height="113px" xml:space="preserve">
<g fill="#0a303b">
	<path d="M88.4,41.1c0.5-0.9,0.3-2.1-0.6-2.7c-19.6-15-46.8-14.8-66.2,0.5c-0.8,0.7-1,1.8-0.5,2.7c-0.4,0.7-0.4,1.7,0.2,2.4
		c0.4,0.5,1.1,0.8,1.7,0.8c0.5,0,0.9-0.2,1.3-0.5c1.9-1.5,4-2.9,6.1-4.1l17,25.5c0,0.2,0.1,0.5,0.1,0.7c0.1,0.4,0.2,0.8,0.3,1.2
		c0.1,0.4,0.2,0.8,0.4,1.3c0.1,0.2,0.2,0.4,0.3,0.6c0.1,0.2,0.2,0.4,0.3,0.6c0.2,0.4,0.4,0.8,0.7,1.2c0.3,0.4,0.6,0.8,0.9,1.1
		c0.2,0.2,0.3,0.3,0.5,0.5c0.2,0.2,0.3,0.3,0.5,0.4c0.3,0.2,0.6,0.4,0.9,0.6l0,0l0.3,4.2v2.4l-0.7,8.1c0,0.5,0.1,1.3,0.3,1.8l2.7,6.6
		c0.2,0.5,0.3,0.4,0.2-0.1l-0.8-6.9c-0.1-0.5,0-1.3,0.1-1.8l1.1-4.1c0.1-0.3,0.1-0.7,0.2-1.1l0,0c0,0.3,0.1,0.6,0.1,0.9l1.1,4.1
		C57,88.6,57,89.5,57,90l-0.8,6.9c-0.1,0.5,0,0.5,0.2,0.1l2.7-6.6c0.2-0.5,0.3-1.3,0.3-1.8l-0.6-6.4l-0.1-4.9l0.3-3.3
		c0.3-0.2,0.6-0.4,0.9-0.6c0.3-0.3,0.6-0.6,0.9-1c0.3-0.4,0.5-0.7,0.8-1.1c0.1-0.1,0.1-0.2,0.2-0.3c0.1-0.1,0.1-0.2,0.2-0.3
		c0.1-0.2,0.2-0.4,0.3-0.6c0.1-0.2,0.2-0.4,0.2-0.6c0.1-0.2,0.1-0.4,0.2-0.6c0-0.1,0.1-0.2,0.1-0.3c0-0.1,0.1-0.2,0.1-0.3
		c0.1-0.2,0.1-0.4,0.2-0.6c0-0.2,0.1-0.4,0.1-0.6c0-0.2,0.1-0.4,0.1-0.6c0-0.1,0-0.2,0-0.2l17-25.6c1.8,1,3.5,2.2,5.1,3.4
		c0.9,0.7,2.3,0.5,3-0.4C88.8,42.8,88.8,41.8,88.4,41.1z M57.4,71.8c-0.3,0.1-0.6,0.1-0.8,0.1c0,0,0,0,0,0l-0.1-0.1
		c0.7-0.5,1.4-1.3,1.3-2.6c0-1.3-1.2-2.4-2.5-2.3c-1.3,0-2.4,1.2-2.3,2.5c0,1.3,0.8,2,1.4,2.5l-0.1,0.1c-0.1,0-0.2,0-0.3,0
		c-0.2,0-0.4,0-0.7-0.1c0,0-0.1,0-0.1,0l-1.2-1.8L39.3,36.2c10.3-3.4,21.5-3.4,31.8,0.1L60,67.8L57.4,71.8z M37.8,36.8l10.2,27
		L31.8,39.4C33.8,38.4,35.8,37.5,37.8,36.8z M63.7,62.2l8.9-25.4c2.1,0.8,4.1,1.7,6.1,2.8L63.7,62.2z"/>
</g>
</svg>
