<?xml version="1.0" encoding="utf-8"?>
<!-- Generator: Adobe Illustrator 18.1.1, SVG Export Plug-In . SVG Version: 6.00 Build 0)  -->
<!DOCTYPE svg PUBLIC "-//W3C//DTD SVG 1.1//EN" "http://www.w3.org/Graphics/SVG/1.1/DTD/svg11.dtd">
<svg version="1.1" id="Layer_1" xmlns="http://www.w3.org/2000/svg" xmlns:xlink="http://www.w3.org/1999/xlink" x="0px" y="0px"
	 viewBox="0 0 126 100" enable-background="new 0 0 126 100" width="126px" height="100px" xml:space="preserve">
<g fill="#0a303b">
	<g>
		<path d="M20.6,32.9c-1.5-0.2-1.7,0.2-0.3,0.9l35.3,18c1.4,0.7,3.8,1.1,5.3,0.9l54.4-7.5c1.5-0.2,1.5-0.5,0-0.7L20.6,32.9z"/>
	</g>
	<g>
		<path d="M54,52.2c1.4,0.7,1.3,1.5-0.3,1.7l-10.4,1.5c-1.5,0.2-2.6-0.9-2.4-2.4l0.6-4c0.2-1.5,1.6-2.2,3-1.5L54,52.2z"/>
	</g>
	<polyline fill="none" stroke="#000000" stroke-width="4" stroke-linejoin="round" stroke-miterlimit="10" points="63.9,51 
		72.5,66.2 75.1,58.4 66.5,50.4 	"/>
	<g>
		<g>
			<g>
				<g>
					<g>
						<path d="M78.6,55c0.8,2.5-1.6,4-1.6,4s-2.7,0.1-3.5-2.4c-0.4-1.4,0.4-2.9,1.8-3.3C76.7,52.8,78.2,53.6,78.6,55z"/>
					</g>
				</g>
			</g>
		</g>
	</g>
	<path d="M74.4,57.3l-1,2.2l1.9,0.2c0,0,0.4-1.7,1.2-2.6"/>
	<path d="M73.5,55.1l-33.8,9.3c-0.5,0.1-0.5,0.2,0,0.2l32.7-1.3c0.5,0,1.2-0.4,1.4-0.9l2-4.1"/>
</g>
</svg>
