<?xml version="1.0" encoding="UTF-8" standalone="no"?>
<svg
   xmlns:dc="http://purl.org/dc/elements/1.1/"
   xmlns:cc="http://creativecommons.org/ns#"
   xmlns:rdf="http://www.w3.org/1999/02/22-rdf-syntax-ns#"
   xmlns:svg="http://www.w3.org/2000/svg"
   xmlns="http://www.w3.org/2000/svg"
   viewBox="0 0 150.22667 103.46667"
   height="103.46667"
   width="150.22667"
   xml:space="preserve"
   id="svg3699"
   version="1.1"><metadata
     id="metadata3705"><rdf:RDF><cc:Work
         rdf:about=""><dc:format>image/svg+xml</dc:format><dc:type
           rdf:resource="http://purl.org/dc/dcmitype/StillImage" /><dc:title></dc:title></cc:Work></rdf:RDF></metadata><defs
     id="defs3703" /><g
     style="display:none"
     transform="matrix(1.3333333,0,0,-1.3333333,0,103.46667)"
     id="g3707"><path
       d="M 6.42891,43.0602 C 6.46211,43.0551 6.49414,43.0539 6.52813,43.05 6.56094,43.048 6.59492,43.0469 6.62891,43.0449 6.66289,43.0441 6.69805,43.041 6.73398,43.041 h 17.07112 7.425 2.2949 0.7809 1.291 1.2031 l 0.9941,-1.743 7.7168,-13.5558 3.425,-6.0172 h 1.3121 1.793 1.9551 0.157 c 0.602,0 1.0938,0.4891 1.0938,1.0941 v 4.9469 20.6641 h -1.2508 -4.5512 v -15.725 l -8.5629,15.0461 -0.0289,0.0539 c -0.1793,0.3668 -0.5461,0.625 -0.9793,0.625 h -0.15 -0.3648 -2.077 -4.2961 v 0.0148 H 10.4648 8.05586 6.73398 5.51406 4.88906 3.93203 C 2.38086,48.4449 0.982031,49.098 0,50.1461 l 1.28398,-1.7012 1.59415,-2.1109 1.675,-2.2192 C 5.02305,43.493 5.71094,43.1371 6.42891,43.0602 M 66.3379,70.1852 C 57.9922,72.7609 48.6469,72.0359 40.4648,67.402 33.9789,63.7301 29.227,58.168 26.4949,51.7949 h 2.1832 c 2.6098,5.6563 6.9457,10.5762 12.7688,13.8731 7.5109,4.2531 16.0601,4.9968 23.7609,2.7699 z M 75.866,43.041 h 30.068 c 0.037,0 0.071,0.0031 0.104,0.0039 0.033,0.002 0.068,0.0031 0.101,0.0051 0.034,0.0039 0.066,0.0051 0.1,0.0102 0.716,0.0769 1.404,0.4328 1.875,1.0546 l 1.675,2.2192 1.596,2.1109 1.281,1.7012 c -0.981,-1.0481 -2.378,-1.7012 -3.929,-1.7012 h -0.958 -0.626 -1.219 -1.324 -2.408 -22.52 v -0.0148 h -4.298 -1.4731 c -0.6199,0 -1.1187,-0.4973 -1.1257,-1.1153 V 47.307 47.2988 37.6301 l 2.0886,3.6679 z M 71.8559,11.9289 C 66.1109,8.67617 59.7559,7.47695 53.6398,8.08906 L 52.4352,6.22109 C 59.2539,5.32617 66.4051,6.55117 72.8379,10.1949 80.327,14.434 85.5031,21.1961 87.925,28.8141 H 85.8281 C 83.4781,21.9031 78.693,15.7988 71.8559,11.9289 M 94.109,28.8129 H 92.05 C 89.5121,19.791 83.5648,11.727 74.7852,6.75586 66.9969,2.34609 58.2711,1.09609 50.0879,2.58906 L 48.9289,0.791016 C 57.784,-1.01797 67.302,0.228125 75.766,5.02305 85.198,10.3621 91.5219,19.0852 94.109,28.8129 M 32.8121,31.3191 H 33 c 0.5461,-0.0453 0.977,-0.4781 1.0199,-1.025 0.002,-0.03 0.009,-0.0589 0.009,-0.089 0,-0.0301 -0.007,-0.0582 -0.009,-0.0871 v -2.3149 -5.025 C 34.0422,22.1949 34.516,21.725 35.107,21.725 h 4.7129 0.0012 v 7.1328 0.7793 l -0.0191,0.025 -0.9598,1.6938 -1.5344,2.7062 -0.8777,1.5457 c -0.2512,0.3352 -0.5692,0.5883 -0.916,0.766 -0.2969,0.1492 -0.6129,0.2461 -0.9371,0.2813 -0.0372,8e-4 -0.0661,0.0039 -0.1008,0.0078 -0.0043,0 -0.0121,0.0012 -0.0172,0.0012 -0.027,0.0019 -0.0551,0.0039 -0.082,0.005 -0.036,8e-4 -0.07,8e-4 -0.1051,8e-4 H 34.0199 30.55 12.1539 c -1.5328,0 -2.91484,0.6481 -3.89101,1.6832 l 1.27109,-1.6832 1.57812,-2.089 1.6598,-2.1981 c 0.4652,-0.6148 1.1453,-0.9687 1.8562,-1.0469 0.0321,-0.0039 0.0649,-0.0058 0.1,-0.0078 0.0328,-0.0019 0.066,-0.0051 0.0989,-0.0062 0.0351,0 0.0691,-0.0028 0.1039,-0.0028 h 11.8769 z m 5.7051,39.5207 c 9.5109,5.386 20.4269,6.059 30.0367,2.777 l 1.1109,1.7223 C 59.4219,78.9809 47.718,78.3398 37.5359,72.5738 29.091,67.7918 23.132,60.2949 20.1211,51.7949 h 2.116 c 2.9289,7.7891 8.4899,14.634 16.2801,19.0449 M 63.193,48.4301 H 58.609 57.4371 57.4199 V 27.766 22.8191 c 0,-0.1632 0.0371,-0.3121 0.0992,-0.45 0.1719,-0.3793 0.5539,-0.6441 0.9957,-0.6441 h 0.1563 1.9559 1.7929 5.4442 l 2.8757,5.0539 -7.5437,0.0172 z M 100.452,36.6699 H 78.334 c -0.0352,0 -0.0711,0 -0.1051,-8e-4 -0.0269,-0.0011 -0.0539,-0.0031 -0.0809,-0.005 -0.007,0 -0.0128,-0.0012 -0.0179,-0.0012 -0.034,-0.0039 -0.0641,-0.007 -0.0992,-0.0078 -0.3258,-0.0352 -0.6399,-0.1321 -0.9387,-0.2813 -0.3481,-0.1777 -0.6641,-0.4308 -0.9184,-0.766 l -0.8769,-1.5457 -1.5328,-2.7062 -0.959,-1.6938 -0.0199,-0.025 V 28.8578 21.725 h 4.7128 c 0.593,0 1.0661,0.4699 1.0872,1.0531 v 5.025 2.3149 c -0.0032,0.0289 -0.0102,0.057 -0.0102,0.0871 0,0.0301 0.007,0.059 0.0102,0.089 0.0437,0.5469 0.4757,0.9797 1.0199,1.025 0,0 18.3398,0.0129 18.3738,0.0168 0.709,0.0782 1.3902,0.4321 1.8551,1.0469 l 1.66,2.1981 1.579,2.089 1.27,1.6832 c -0.976,-1.0351 -2.358,-1.6832 -3.891,-1.6832"
       style="display:none;fill:#134263;fill-opacity:1;fill-rule:nonzero;stroke:none;stroke-width:0.1"
       id="path3711" /><path
       id="path3714"
       style="display:none;fill:#134263;fill-opacity:1;fill-rule:nonzero;stroke:none;stroke-width:0.1"
       d="M 6.42891,43.0602 C 6.46211,43.0551 6.49414,43.0539 6.52813,43.05 6.56094,43.048 6.59492,43.0469 6.62891,43.0449 6.66289,43.0441 6.69805,43.041 6.73398,43.041 h 17.07112 7.425 2.2949 0.7809 1.291 1.2031 l 0.9941,-1.743 7.7168,-13.5558 3.425,-6.0172 h 1.3121 1.793 1.9551 0.157 c 0.602,0 1.0938,0.4891 1.0938,1.0941 v 4.9469 20.6641 h -1.2508 -4.5512 v -15.725 l -8.5629,15.0461 -0.0289,0.0539 c -0.1793,0.3668 -0.5461,0.625 -0.9793,0.625 h -0.15 -0.3648 -2.077 -4.2961 v 0.0148 H 10.4648 8.05586 6.73398 5.51406 4.88906 3.93203 C 2.38086,48.4449 0.982031,49.098 0,50.1461 l 1.28398,-1.7012 1.59415,-2.1109 1.675,-2.2192 C 5.02305,43.493 5.71094,43.1371 6.42891,43.0602 M 66.3379,70.1852 C 57.9922,72.7609 48.6469,72.0359 40.4648,67.402 33.9789,63.7301 29.227,58.168 26.4949,51.7949 h 2.1832 c 2.6098,5.6563 6.9457,10.5762 12.7688,13.8731 7.5109,4.2531 16.0601,4.9968 23.7609,2.7699 z M 75.866,43.041 h 30.068 c 0.037,0 0.071,0.0031 0.104,0.0039 0.033,0.002 0.068,0.0031 0.101,0.0051 0.034,0.0039 0.066,0.0051 0.1,0.0102 0.716,0.0769 1.404,0.4328 1.875,1.0546 l 1.675,2.2192 1.596,2.1109 1.281,1.7012 c -0.981,-1.0481 -2.378,-1.7012 -3.929,-1.7012 h -0.958 -0.626 -1.219 -1.324 -2.408 -22.52 v -0.0148 h -4.298 -1.4731 c -0.6199,0 -1.1187,-0.4973 -1.1257,-1.1153 V 47.307 47.2988 37.6301 l 2.0886,3.6679 z M 71.8559,11.9289 C 66.1109,8.67617 59.7559,7.47695 53.6398,8.08906 L 52.4352,6.22109 C 59.2539,5.32617 66.4051,6.55117 72.8379,10.1949 80.327,14.434 85.5031,21.1961 87.925,28.8141 H 85.8281 C 83.4781,21.9031 78.693,15.7988 71.8559,11.9289 M 94.109,28.8129 H 92.05 C 89.5121,19.791 83.5648,11.727 74.7852,6.75586 66.9969,2.34609 58.2711,1.09609 50.0879,2.58906 L 48.9289,0.791016 C 57.784,-1.01797 67.302,0.228125 75.766,5.02305 85.198,10.3621 91.5219,19.0852 94.109,28.8129 M 32.8121,31.3191 H 33 c 0.5461,-0.0453 0.977,-0.4781 1.0199,-1.025 0.002,-0.03 0.009,-0.0589 0.009,-0.089 0,-0.0301 -0.007,-0.0582 -0.009,-0.0871 v -2.3149 -5.025 C 34.0422,22.1949 34.516,21.725 35.107,21.725 h 4.7129 0.0012 v 7.1328 0.7793 l -0.0191,0.025 -0.9598,1.6938 -1.5344,2.7062 -0.8777,1.5457 c -0.2512,0.3352 -0.5692,0.5883 -0.916,0.766 -0.2969,0.1492 -0.6129,0.2461 -0.9371,0.2813 -0.0372,8e-4 -0.0661,0.0039 -0.1008,0.0078 -0.0043,0 -0.0121,0.0012 -0.0172,0.0012 -0.027,0.0019 -0.0551,0.0039 -0.082,0.005 -0.036,8e-4 -0.07,8e-4 -0.1051,8e-4 H 34.0199 30.55 12.1539 c -1.5328,0 -2.91484,0.6481 -3.89101,1.6832 l 1.27109,-1.6832 1.57812,-2.089 1.6598,-2.1981 c 0.4652,-0.6148 1.1453,-0.9687 1.8562,-1.0469 0.0321,-0.0039 0.0649,-0.0058 0.1,-0.0078 0.0328,-0.0019 0.066,-0.0051 0.0989,-0.0062 0.0351,0 0.0691,-0.0028 0.1039,-0.0028 h 11.8769 z m 5.7051,39.5207 c 9.5109,5.386 20.4269,6.059 30.0367,2.777 l 1.1109,1.7223 C 59.4219,78.9809 47.718,78.3398 37.5359,72.5738 29.091,67.7918 23.132,60.2949 20.1211,51.7949 h 2.116 c 2.9289,7.7891 8.4899,14.634 16.2801,19.0449 M 63.193,48.4301 H 58.609 57.4371 57.4199 V 27.766 22.8191 c 0,-0.1632 0.0371,-0.3121 0.0992,-0.45 0.1719,-0.3793 0.5539,-0.6441 0.9957,-0.6441 h 0.1563 1.9559 1.7929 5.4442 l 2.8757,5.0539 -7.5437,0.0172 z M 100.452,36.6699 H 78.334 c -0.0352,0 -0.0711,0 -0.1051,-8e-4 -0.0269,-0.0011 -0.0539,-0.0031 -0.0809,-0.005 -0.007,0 -0.0128,-0.0012 -0.0179,-0.0012 -0.034,-0.0039 -0.0641,-0.007 -0.0992,-0.0078 -0.3258,-0.0352 -0.6399,-0.1321 -0.9387,-0.2813 -0.3481,-0.1777 -0.6641,-0.4308 -0.9184,-0.766 l -0.8769,-1.5457 -1.5328,-2.7062 -0.959,-1.6938 -0.0199,-0.025 V 28.8578 21.725 h 4.7128 c 0.593,0 1.0661,0.4699 1.0872,1.0531 v 5.025 2.3149 c -0.0032,0.0289 -0.0102,0.057 -0.0102,0.0871 0,0.0301 0.007,0.059 0.0102,0.089 0.0437,0.5469 0.4757,0.9797 1.0199,1.025 0,0 18.3398,0.0129 18.3738,0.0168 0.709,0.0782 1.3902,0.4321 1.8551,1.0469 l 1.66,2.1981 1.579,2.089 1.27,1.6832 c -0.976,-1.0351 -2.358,-1.6832 -3.891,-1.6832" /></g><g
     id="layer1"><path
       id="path3757"
       d="m 8.4557463,45.999792 c 0.04427,0.0068 0.08697,0.0084 0.132293,0.0136 0.04375,0.0027 0.08905,0.0041 0.134373,0.0068 0.04531,0.0011 0.09219,0.0052 0.140094,0.0052 h 22.7614927 9.899999 3.059867 1.0412 1.721333 1.604133 l 1.325467,2.324 10.289066,18.074399 4.566667,8.022933 h 1.749467 2.390666 2.6068 0.209334 c 0.802666,0 1.458399,-0.652133 1.458399,-1.4588 V 66.392058 38.839926 h -1.667733 -6.068266 v 20.966665 l -11.4172,-20.061465 -0.03853,-0.07187 c -0.23907,-0.489063 -0.728137,-0.83333 -1.305737,-0.83333 h -0.2 -0.4864 -2.769333 -5.728133 v -0.01973 h -30.028133 -3.21192 -1.7625057 -1.62656 -0.833333 -1.27604 c -2.068227,-3e-6 -3.933332,-0.870803 -5.24270699,-2.26827 l 1.71197299,2.268267 2.125534,2.814532 2.233333,2.958933 c 0.62656,0.829067 1.543747,1.3036 2.50104,1.406134"
       style="display:inline;fill:#134263;fill-opacity:1;fill-rule:nonzero;stroke:none;stroke-width:0.13333333" /><path
       id="path3755"
       d="M 88.3344,9.8331264 C 77.206797,6.3988604 64.746398,7.3655264 53.836931,13.544059 45.189065,18.439926 38.853198,25.85606 35.210398,34.353526 h 2.910934 c 3.479733,-7.541733 9.260933,-14.1016 17.025066,-18.497467 10.014533,-5.6708 21.413466,-6.6623986 31.681202,-3.6932 z"
       style="display:inline;fill:#134263;fill-opacity:1;fill-rule:nonzero;stroke:none;stroke-width:0.13333333" /><path
       id="path3753"
       d="m 101.03853,46.025392 h 40.09067 c 0.0493,0 0.0947,-0.0041 0.13867,-0.0052 0.044,-0.0027 0.0907,-0.0041 0.13466,-0.0068 0.0453,-0.0052 0.088,-0.0068 0.13334,-0.0136 0.95466,-0.102534 1.872,-0.577067 2.5,-1.406134 l 2.23333,-2.958933 2.128,-2.814532 1.708,-2.268267 c -1.308,1.397467 -3.17067,2.268267 -5.23867,2.268267 h -1.27733 -0.83467 -1.62533 -1.76533 -3.21067 -30.02667 v 0.01973 h -5.73066 -1.96414 c -0.82653,0 -1.4916,0.663067 -1.50093,1.487067 v 0.0104 0.01093 12.891599 l 2.7848,-4.890533 z"
       style="display:inline;fill:#134263;fill-opacity:1;fill-rule:nonzero;stroke:none;stroke-width:0.13333333" /><path
       id="path3751"
       d="m 95.69173,87.508191 c -7.66,4.336973 -16.133333,5.935933 -24.288132,5.119786 l -1.606134,2.490627 C 78.889064,96.31183 88.424,94.678497 97.00106,89.82019 106.98653,84.168057 113.888,75.151924 117.1172,64.994591 h -2.79587 c -3.13333,9.214667 -9.51346,17.353733 -18.6296,22.5136"
       style="display:inline;fill:#134263;fill-opacity:1;fill-rule:nonzero;stroke:none;stroke-width:0.13333333" /><path
       id="path3749"
       d="m 125.36253,64.996191 h -2.74533 c -3.38387,12.0292 -11.3136,22.7812 -23.01974,29.409386 -10.3844,5.879703 -22.018796,7.546363 -32.929729,5.555741 l -1.545333,2.397392 c 11.806799,2.41198 24.497462,0.75052 35.782802,-5.64272 12.576,-7.118733 21.00787,-18.749533 24.45733,-31.719799"
       style="display:inline;fill:#134263;fill-opacity:1;fill-rule:nonzero;stroke:none;stroke-width:0.13333333" /><path
       id="path3747"
       d="m 43.633332,61.654591 h 0.250533 c 0.728133,0.0604 1.302667,0.637467 1.359867,1.366667 0.0027,0.04 0.012,0.07853 0.012,0.118666 0,0.04013 -0.0093,0.0776 -0.012,0.116134 v 3.086533 6.7 c 0.02973,0.7776 0.661466,1.404133 1.449466,1.404133 h 6.283867 0.0016 v -9.5104 -1.039066 l -0.02547,-0.03333 -1.279733,-2.258399 -2.045867,-3.608267 -1.170267,-2.060933 c -0.334933,-0.446934 -0.758933,-0.7844 -1.221333,-1.021334 -0.395867,-0.198933 -0.8172,-0.328133 -1.249466,-0.375066 -0.0496,-0.0011 -0.08813,-0.0052 -0.1344,-0.0104 -0.0057,0 -0.01613,-0.0016 -0.02293,-0.0016 -0.036,-0.0025 -0.07347,-0.0052 -0.109333,-0.0067 -0.048,-0.0011 -0.09333,-0.0011 -0.140133,-0.0011 h -0.336 -4.626535 -24.528132 c -2.043734,0 -3.886454,-0.864133 -5.188014,-2.244266 l 1.694787,2.244266 2.10416,2.785334 2.213067,2.9308 c 0.620266,0.819733 1.527066,1.2916 2.474933,1.395866 0.0428,0.0052 0.08653,0.0077 0.133333,0.0104 0.04373,0.0025 0.088,0.0068 0.131867,0.0083 0.0468,0 0.09213,0.0037 0.138533,0.0037 h 15.835866 z"
       style="display:inline;fill:#134263;fill-opacity:1;fill-rule:nonzero;stroke:none;stroke-width:0.13333333" /><path
       id="path3745"
       d="m 51.240131,8.9603264 c 12.6812,-7.181333 27.235866,-8.07866607 40.048929,-3.702666 l 1.4812,-2.2964 C 79.113064,-1.8944736 63.507864,-1.0396737 49.931731,6.6483264 38.671865,13.024326 30.726532,23.020193 26.711999,34.353526 h 2.821333 c 3.9052,-10.385466 11.319866,-19.512 21.706799,-25.3931996"
       style="display:inline;fill:#134263;fill-opacity:1;fill-rule:nonzero;stroke:none;stroke-width:0.13333333" /><path
       id="path3743"
       d="m 84.1412,38.839926 h -6.112003 -1.562533 -0.02293 v 27.552132 6.595866 c 0,0.2176 0.04947,0.416134 0.132266,0.6 0.2292,0.505734 0.738534,0.8588 1.3276,0.8588 h 0.2084 2.607867 2.390533 7.25893 l 3.83427,-6.738533 -10.05827,-0.02293 z"
       style="display:inline;fill:#134263;fill-opacity:1;fill-rule:nonzero;stroke:none;stroke-width:0.13333333" /><path
       id="path3714-3"
       d="M 133.81987,54.520191 H 104.3292 c -0.0469,0 -0.0948,0 -0.14013,0.0011 -0.0359,0.0015 -0.0719,0.0041 -0.10787,0.0067 -0.009,0 -0.0171,0.0016 -0.0239,0.0016 -0.0453,0.0052 -0.0855,0.0093 -0.13226,0.0104 -0.4344,0.04693 -0.8532,0.176133 -1.2516,0.375066 -0.46414,0.236934 -0.88547,0.5744 -1.22454,1.021334 l -1.1692,2.060933 -2.04373,3.608267 -1.27867,2.258399 -0.0265,0.03333 v 1.039066 9.5104 h 6.28373 c 0.79067,0 1.42147,-0.626533 1.4496,-1.404133 v -6.7 -3.086533 c -0.004,-0.03853 -0.0136,-0.076 -0.0136,-0.116134 0,-0.04013 0.009,-0.07867 0.0136,-0.118666 0.0583,-0.7292 0.63427,-1.306267 1.35987,-1.366667 0,0 24.45307,-0.0172 24.4984,-0.0224 0.94533,-0.104266 1.8536,-0.576133 2.47347,-1.395866 l 2.21333,-2.9308 2.10533,-2.785334 1.69334,-2.244266 c -1.30134,1.380133 -3.144,2.244266 -5.188,2.244266"
       style="display:inline;fill:#134263;fill-opacity:1;fill-rule:nonzero;stroke:none;stroke-width:0.13333333" /></g></svg>