<?xml version="1.0" encoding="UTF-8" standalone="no"?>
<svg
   xmlns:dc="http://purl.org/dc/elements/1.1/"
   xmlns:cc="http://creativecommons.org/ns#"
   xmlns:rdf="http://www.w3.org/1999/02/22-rdf-syntax-ns#"
   xmlns:svg="http://www.w3.org/2000/svg"
   xmlns="http://www.w3.org/2000/svg"
   viewBox="0 0 150.22667 37.893333"
   height="37.893333"
   width="150.22667"
   xml:space="preserve"
   id="svg3872"
   version="1.1"><metadata
     id="metadata3878"><rdf:RDF><cc:Work
         rdf:about=""><dc:format>image/svg+xml</dc:format><dc:type
           rdf:resource="http://purl.org/dc/dcmitype/StillImage" /><dc:title></dc:title></cc:Work></rdf:RDF></metadata><defs
     id="defs3876" /><g
     transform="matrix(1.3333333,0,0,-1.3333333,0,37.893333)"
     id="g3880"><g
       transform="scale(0.1)"
       id="g3882"><path
         id="path3884"
         style="fill:#134263;fill-opacity:1;fill-rule:nonzero;stroke:none"
         d="m 64.2891,213.352 c 0.332,-0.051 0.6523,-0.063 0.9922,-0.102 0.3281,-0.02 0.6679,-0.031 1.0078,-0.051 0.3398,-0.008 0.6914,-0.039 1.0507,-0.039 h 170.7112 74.25 22.949 7.809 12.91 H 368 L 377.941,195.73 455.109,60.1719 489.359,0 h 13.121 17.93 19.551 1.57 c 6.02,0 10.938,4.89063 10.938,10.9414 V 60.4102 267.051 h -12.508 -45.512 v -157.25 l -85.629,150.461 -0.289,0.539 c -1.793,3.668 -5.461,6.25 -9.793,6.25 h -1.5 -3.648 -20.77 -42.961 v 0.148 H 104.648 80.5586 67.3398 55.1406 48.8906 39.3203 C 23.8086,267.199 9.82031,273.73 0,284.211 l 12.8398,-17.012 15.9415,-21.109 16.75,-22.192 c 4.6992,-6.218 11.5781,-9.777 18.7578,-10.546 M 758.66,213.16 h 12.051 12.891 7.82 22.937 74.262 170.719 c 0.37,0 0.71,0.031 1.04,0.039 0.33,0.02 0.68,0.031 1.01,0.051 0.34,0.039 0.66,0.051 1,0.102 7.16,0.769 14.04,4.328 18.75,10.546 l 16.75,22.192 15.96,21.109 12.81,17.012 c -9.81,-10.481 -23.78,-17.012 -39.29,-17.012 h -9.58 -6.26 -12.19 -13.24 -24.08 -225.2 v -0.148 h -42.98 -14.731 c -6.199,0 -11.187,-4.973 -11.257,-11.153 v -0.078 -0.082 -96.687 l 20.886,36.679 z M 328.121,95.9414 H 330 c 5.461,-0.4531 9.77,-4.7812 10.199,-10.25 0.02,-0.3008 0.09,-0.5898 0.09,-0.8906 0,-0.3008 -0.07,-0.582 -0.09,-0.8711 V 60.7813 10.5313 C 340.422,4.69922 345.16,0 351.07,0 h 47.129 0.012 v 71.3281 7.793 l -0.191,0.25 -9.598,16.9375 -15.344,27.0624 -8.777,15.457 c -2.512,3.352 -5.692,5.883 -9.16,7.66 -2.969,1.492 -6.129,2.461 -9.371,2.813 -0.372,0.008 -0.661,0.039 -1.008,0.078 -0.043,0 -0.121,0.012 -0.172,0.012 -0.27,0.019 -0.551,0.039 -0.82,0.05 -0.36,0.008 -0.7,0.008 -1.051,0.008 H 340.199 305.5 121.539 c -15.328,0 -29.1484,6.481 -38.9101,16.832 l 12.7109,-16.832 15.7812,-20.89 16.598,-21.981 c 4.652,-6.148 11.453,-9.6874 18.562,-10.4686 0.321,-0.0391 0.649,-0.0586 1,-0.0781 0.328,-0.0196 0.66,-0.0508 0.989,-0.0625 0.351,0 0.691,-0.0274 1.039,-0.0274 H 268.078 Z M 631.93,267.051 H 574.199 V 10.9414 c 0,-1.63281 0.371,-3.12109 0.992,-4.49999 C 576.91,2.64844 580.73,0 585.148,0 h 1.563 19.559 17.929 54.442 l 28.757,50.5391 -75.437,0.1718 z M 1004.52,149.449 H 783.34 c -0.352,0 -0.711,0 -1.051,-0.008 -0.269,-0.011 -0.539,-0.031 -0.809,-0.05 -0.07,0 -0.128,-0.012 -0.179,-0.012 -0.34,-0.039 -0.641,-0.07 -0.992,-0.078 -3.258,-0.352 -6.399,-1.321 -9.387,-2.813 -3.481,-1.777 -6.641,-4.308 -9.184,-7.66 l -8.769,-15.457 -15.328,-27.0624 -9.59,-16.9375 -0.199,-0.25 V 71.3281 0 h 47.128 c 5.93,0 10.661,4.69922 10.872,10.5313 v 50.25 23.1484 c -0.032,0.2891 -0.102,0.5703 -0.102,0.8711 0,0.3008 0.07,0.5898 0.102,0.8906 0.437,5.4688 4.757,9.7969 10.199,10.25 0,0 183.398,0.1289 183.738,0.168 7.09,0.7812 13.902,4.3206 18.551,10.4686 l 16.6,21.981 15.79,20.89 12.7,16.832 c -9.76,-10.351 -23.58,-16.832 -38.91,-16.832" /></g></g></svg>