<?xml version="1.0" encoding="utf-8"?>
<!-- Generator: Adobe Illustrator 18.1.1, SVG Export Plug-In . SVG Version: 6.00 Build 0)  -->
<!DOCTYPE svg PUBLIC "-//W3C//DTD SVG 1.1//EN" "http://www.w3.org/Graphics/SVG/1.1/DTD/svg11.dtd">
<svg version="1.1" id="Layer_1" xmlns="http://www.w3.org/2000/svg" xmlns:xlink="http://www.w3.org/1999/xlink" x="0px" y="0px"
	 viewBox="0 0 136 108" enable-background="new 0 0 136 108" width="136px" height="108px" xml:space="preserve">
<g fill="#0a303b">
	<path d="M79.3,53.2c0,0.9,0.3,1.5,0.9,1.9c0.8,0.5,1.9,0.5,3.1,0l6.8-2.8l-2.4-5l-3.9,0.9C81.4,48.8,79.3,51.1,79.3,53.2z"/>
	<path d="M113.7,58.9c0-0.1,0-0.2-0.1-0.3c0,0,0,0,0,0c-0.1-0.1-0.1-0.2-0.2-0.3c0,0,0,0-0.1,0c-0.1-0.1-0.2-0.2-0.4-0.2
		c0,0,0,0,0,0c-0.1-0.1-0.3-0.1-0.5-0.2c0,0,0,0,0,0c0,0,0,0,0,0c-0.1,0-0.1,0-0.2-0.1c-0.2-4.4-0.6-8.4-1.1-11.7
		c-0.3,3.2-0.4,7.1-0.4,11.3c-0.3,0-0.6-0.1-0.9-0.1c-2.3-1.9-8.5-3.3-16.2-4.2v0c0,0,0,0,0,0c-0.8-0.1-1.6-0.2-2.4-0.2L83.7,56
		c-0.7,0.3-1.4,0.4-2,0.4c-0.7,0-1.4-0.2-1.9-0.5c-0.8-0.6-1.3-1.5-1.3-2.7c0-2.5,2.3-5.1,5.2-5.8l3.7-0.8l0-0.1
		c0.3-0.1,0.7-0.1,1-0.2l0.4-0.1l0,0c1.6-0.2,2.8-0.4,3.2-0.5c1.4-0.2,1.4-0.7,0.6-0.7c-1.7,0-5.3-0.1-6.1-1
		c-0.8-0.8-11.2-8.1-12.8-9.6c-1.5-1.5-3.8-1.3-6.5-1c-2.7,0.3-20.5,3.7-22,4.3c-1.5,0.6-0.5,0.7,0.8,1.3c1.3,0.6,16.6,6.8,19.8,7.9
		c0.7,0.3,1.6,0.4,2.4,0.6l-26.3,8.9c-2.9,0.7-9.3-4.8-9.3-4.8s-8.2-7.9-10.7-6c-1,0.8-1.5,2.4-1.7,4.2c0,0,0,0,0,0
		c0,0.1,0,0.1,0,0.2c0,0.2,0,0.4,0,0.7c0,0.1,0,0.2,0,0.3c0,0.2,0,0.5,0,0.7c0,0.1,0,0.2,0,0.3c0,0.3,0,0.6,0,0.9c0,0,0,0.1,0,0.1
		c0,0.3,0.1,0.7,0.1,1c0,0.1,0,0.2,0,0.3c0,0.2,0.1,0.5,0.1,0.7c0,0.1,0,0.2,0.1,0.3c0,0.2,0.1,0.4,0.1,0.6c0,0.1,0,0.2,0.1,0.3
		c0,0.2,0.1,0.4,0.2,0.5c0,0.1,0,0.2,0.1,0.2c0,0.1,0.1,0.2,0.1,0.4c-0.2,0-0.3,0-0.5,0c-2.2,0.1-3.9,0.3-4.9,0.6
		c-0.7,0.2-1,0.3-1,0.5c0,0.5,3.5,1,8.4,1.2c1.3,0.9,3.3,1.6,6.1,2.3c4.4,1.7,18.7,4.2,33.8,5.7l0.9,6c-1.2,0.5-2.1,1.6-2.3,3
		c-0.3,2.1,1.2,4.1,3.3,4.4c1.8,0.3,3.5-0.8,4.1-2.4c1.6-0.1,3-1.3,3.2-3c0.2-1.7-0.8-3.3-2.4-3.8l4.2-3.3c3,0.2,5.9,0.3,8.6,0.3
		c1.7,0,3.3,0,4.8-0.1l1.9,4.7c-0.7,0.5-1.2,1.3-1.3,2.2c-0.3,1.9,1.1,3.7,3,3.9c1.9,0.3,3.7-1.1,3.9-3c0.3-1.9-1.1-3.7-3-3.9
		c-0.3,0-0.6,0-0.9,0l-0.8-1.9l3.3-2.6c10.2-1.5,14.7-5.2,16.4-7.5c0,0,0,0,0,0c0-0.1,0.1-0.1,0.1-0.2l0.1,0l0.1,0
		c0.1,0,0.1,0,0.2,0l0.1,0l0,0c0,0,0,0,0,0l0,0l0,0l0.1,0l0.1,0c0.2,4.2,0.6,8.1,1.1,11.3c0.3-3.3,0.4-7.3,0.3-11.7l0,0l0.1,0l0,0
		c0,0,0,0,0,0l0,0l0,0l0,0v0c0,0,0,0,0,0l0,0l0,0l0.1,0c0,0,0,0,0,0c0,0,0.1,0,0.1-0.1l0.1,0l0,0c0,0,0,0,0,0l0,0l0,0
		c0.1,0,0.1-0.1,0.2-0.1c0,0,0,0,0,0l0,0c0,0,0,0,0,0l0,0l0,0c0,0,0,0,0,0l0,0l0,0l0,0l0,0l0,0l0,0c0,0,0,0,0.1,0c0,0,0,0,0,0
		c0,0,0,0,0,0l0,0c0,0,0,0,0,0l0,0c0,0,0.1-0.1,0.1-0.1c0,0,0,0,0,0c0,0,0,0,0,0l0,0c0,0,0,0,0-0.1c0,0,0,0,0,0c0,0,0,0,0,0l0,0l0,0
		l0,0c0,0,0,0,0,0l0,0l0,0l0,0l0,0l0,0l0,0c0,0,0,0,0,0l0,0l0,0l0,0c0,0,0,0,0,0l0,0c0,0,0,0,0-0.1l0,0l0,0c0,0,0,0,0,0
		C113.7,59.1,113.7,59,113.7,58.9z M65.7,73.6l-0.8-5l1.6,4C66.2,72.9,65.9,73.3,65.7,73.6z M68.2,71.6l-1.4-3.4
		c1.7,0.1,3.4,0.3,5.1,0.4L68.2,71.6z M89.7,69.9L89.3,69c0.6,0,1.2-0.1,1.8-0.2L89.7,69.9z"/>
</g>
</svg>
