<?xml version="1.0" encoding="utf-8"?>
<!-- Generator: Adobe Illustrator 18.1.1, SVG Export Plug-In . SVG Version: 6.00 Build 0)  -->
<!DOCTYPE svg PUBLIC "-//W3C//DTD SVG 1.1//EN" "http://www.w3.org/Graphics/SVG/1.1/DTD/svg11.dtd">
<svg version="1.1" id="Layer_1" xmlns="http://www.w3.org/2000/svg" xmlns:xlink="http://www.w3.org/1999/xlink" x="0px" y="0px"
	 viewBox="0 0 115 100" enable-background="new 0 0 115 100" width="115px" height="100px" xml:space="preserve">
<g fill="#0a303b">
	<path d="M94,55.3L94,55.3L94,55.3L94,55.3C94,55.3,94,55.3,94,55.3L94,55.3l0.1-0.1l0,0v0l0,0l0,0l0,0l0,0c0,0,0.1,0,0.1-0.1l0,0
		l0,0c0,0,0,0,0,0l0,0l0,0c0,0,0.1-0.1,0.1-0.1c0,0,0,0,0,0l0,0c0,0,0,0,0,0l0,0l0,0c0,0,0,0,0,0l0,0l0,0l0,0l0,0l0,0l0,0
		c0,0,0,0,0,0c0,0,0,0,0,0c0,0,0,0,0,0l0,0c0,0,0,0,0,0l0,0c0,0,0,0,0.1-0.1c0,0,0,0,0,0c0,0,0,0,0,0l0,0c0,0,0,0,0,0c0,0,0,0,0,0
		c0,0,0,0,0,0l0,0l0,0l0,0c0,0,0,0,0,0l0,0l0,0l0,0l0,0l0,0l0,0c0,0,0,0,0,0l0,0l0,0l0,0c0,0,0,0,0,0l0,0c0,0,0,0,0,0l0,0l0,0
		c0,0,0,0,0,0c0-0.1,0-0.1,0-0.2c0-0.1-0.1-0.1-0.1-0.2c0,0,0,0,0,0c-0.1-0.1-0.1-0.1-0.2-0.2c0,0,0,0,0,0c-0.1-0.1-0.2-0.1-0.3-0.1
		c0,0,0,0,0,0c-0.1,0-0.3-0.1-0.4-0.1c0,0,0,0,0,0c0,0,0,0,0,0c0,0-0.1,0-0.1,0c-0.6-3.3-1.4-6.4-2.2-8.8c0.1,2.5,0.4,5.5,1,8.7
		c-0.2,0-0.5,0-0.7,0c-2-1.2-6.9-1.6-12.9-1.4l0,0c0,0,0,0,0,0c-0.6,0-1.3,0-1.9,0.1c-1.7,0.5-6.4,1.8-8.7,2.5
		c-0.3,0.1-0.6,0.1-0.9,0.1c-1,0-2.2-0.4-2.9-1.1l-3.7-3.9c-5.5,1.5-11.8,4-16.9,6.2l-2.2-5.1l-6.1-5.4c0.1-0.1,0.1-0.3,0.1-0.4
		c0-0.6-0.5-1.2-1.2-1.2c-0.6,0-1.2,0.5-1.2,1.2c0,0.6,0.5,1.2,1.2,1.2c0.1,0,0.3,0,0.4-0.1l6,5.3l2.1,4.9c-3.2,1.4-5.9,2.7-7.5,3.5
		c-1.9-0.8-3.8-2-3.8-2s-7.2-5.2-8.9-3.4c-0.7,0.7-0.9,2-0.8,3.4c0,0,0,0,0,0c0,0.1,0,0.1,0,0.2c0,0.2,0,0.3,0,0.5
		c0,0.1,0,0.2,0,0.3c0,0.2,0,0.4,0.1,0.5c0,0.1,0,0.2,0,0.2c0,0.2,0.1,0.5,0.1,0.7c0,0,0,0.1,0,0.1c0.1,0.3,0.1,0.5,0.2,0.8
		c0,0.1,0,0.1,0.1,0.2c0.1,0.2,0.1,0.3,0.2,0.5c0,0.1,0.1,0.2,0.1,0.2c0.1,0.1,0.1,0.3,0.2,0.4c0,0.1,0.1,0.2,0.1,0.2
		c0.1,0.1,0.1,0.3,0.2,0.4c0,0.1,0.1,0.1,0.1,0.2c0,0.1,0.1,0.2,0.2,0.3c-0.1,0-0.2,0-0.3,0.1c-0.1,0-0.3,0.1-0.4,0.1
		c-0.4,0.1-0.8,0.2-1.2,0.3c-0.1,0-0.2,0.1-0.3,0.1c-0.3,0.1-0.6,0.2-0.9,0.2c-0.1,0-0.2,0.1-0.3,0.1c-0.2,0.1-0.4,0.1-0.6,0.2
		c-0.5,0.2-0.8,0.3-0.9,0.4c0,0,0,0.1,0,0.1c0.1,0.4,2.8,0.4,6.6,0c1.3,0.6,3.3,1,6.3,1.2c0.9,0.1,2.1,0.1,3.4,0.1
		c0.8,0,1.7,0,2.7,0h0h0h0c0.4,0,0.8,0,1.2,0c0.1,0,0.1,0,0.2,0c2.1,0,4.4-0.1,6.9-0.2c1,0,2-0.1,3.1-0.2c0,0,0,0,0,0L39.3,71
		c-0.9,0.5-0.8,0.8,0.2,0.5c0,0,12.1-2.5,24.1-5.2c0.3,0,0.5-0.1,0.7-0.1c1.2-0.1,6.5-1.3,9.9-2.2l1.3,4.2c-0.9,0.5-1.4,1.5-1.4,2.5
		c0,1.7,1.3,3,3,3c1.4,0,2.6-1,2.9-2.3c1.2-0.3,2.1-1.3,2.1-2.6c0-1.3-1-2.5-2.3-2.7l4.9-5.1c0.4-0.1,0.8-0.3,1.1-0.4c0,0,0,0,0,0
		c0.1,0,0.1-0.1,0.2-0.1c0.2-0.1,0.3-0.1,0.5-0.2c0.1,0,0.2-0.1,0.3-0.1c0.2-0.1,0.3-0.1,0.5-0.2c0.1,0,0.1-0.1,0.2-0.1
		c0.2-0.1,0.4-0.2,0.6-0.3c0,0,0.1,0,0.1-0.1c0.2-0.1,0.3-0.2,0.4-0.2c0.1,0,0.1-0.1,0.2-0.1c0.1-0.1,0.2-0.1,0.3-0.2
		c0.1,0,0.1-0.1,0.2-0.1c0.1-0.1,0.2-0.1,0.3-0.2c0.1,0,0.1-0.1,0.2-0.1c0.1-0.1,0.2-0.1,0.3-0.2c0,0,0.1-0.1,0.1-0.1
		c0.1-0.1,0.3-0.2,0.4-0.3c0,0,0.1-0.1,0.1-0.1c0.1-0.1,0.2-0.1,0.2-0.2c0,0,0.1-0.1,0.1-0.1c0.1-0.1,0.1-0.1,0.2-0.2
		c0,0,0.1-0.1,0.1-0.1c0.1-0.1,0.1-0.1,0.2-0.2c0,0,0.1-0.1,0.1-0.1c0.1-0.1,0.1-0.1,0.2-0.2c0,0,0-0.1,0.1-0.1
		c0.1-0.1,0.1-0.2,0.2-0.3c0,0,0-0.1,0.1-0.1c0-0.1,0.1-0.1,0.1-0.2c0,0,0-0.1,0.1-0.1c0,0,0-0.1,0-0.1l0.1,0l0.1,0c0,0,0.1,0,0.1,0
		l0.1,0l0,0c0,0,0,0,0,0l0,0l0,0l0.1,0l0.1,0c0.6,3.2,1.3,6.1,2.1,8.5C94.9,61.8,94.5,58.7,94,55.3z M77,67.8L77,67.8L75.8,64
		l1.7,2.9C77.3,67.2,77.1,67.4,77,67.8z M78.7,66l-1.6-2.8c1.7-0.4,3.2-0.8,4.5-1.2c0.1,0,0.3-0.1,0.4-0.1c0.1,0,0.2-0.1,0.3-0.1
		c0,0,0,0,0.1,0c0.2,0,0.3-0.1,0.5-0.1L78.7,66z"/>
	<path d="M68,53.5c2.4-0.6,5.8-1.6,7.7-2.1c-2.6-2-6.6-3.7-12.5-2.4c-0.4,0.1-0.8,0.2-1.2,0.3l3.3,3.5C65.9,53.4,67.1,53.7,68,53.5z
		"/>
	<path d="M34.5,48.6V48c-1.7,0-3.1-1.4-3.1-3.1c0-1.7,1.4-3.1,3.1-3.1c1.7,0,3.1,1.4,3.1,3.1h0.7c0-2.1-1.7-3.8-3.8-3.8
		c-2.1,0-3.8,1.7-3.8,3.8C30.6,46.9,32.4,48.6,34.5,48.6z"/>
</g>
</svg>
