<?xml version="1.0" encoding="utf-8"?>
<!-- Generator: Adobe Illustrator 18.1.1, SVG Export Plug-In . SVG Version: 6.00 Build 0)  -->
<!DOCTYPE svg PUBLIC "-//W3C//DTD SVG 1.1//EN" "http://www.w3.org/Graphics/SVG/1.1/DTD/svg11.dtd">
<svg version="1.1" id="Layer_1" xmlns="http://www.w3.org/2000/svg" xmlns:xlink="http://www.w3.org/1999/xlink" x="0px" y="0px"
	 viewBox="0 0 141 100" enable-background="new 0 0 141 100" width="141px" height="100px" xml:space="preserve">
<g fill="#0a303b">
	<path d="M123.6,50.7c-0.1-3.4-0.4-5.9-0.8-5.9c-0.4,0-0.7,2.3-0.8,5.6c-0.7-0.1-1.1-0.1-1.1-0.1v0l-4.5-0.7l11-10.5
		c0.3-0.3,0.6-0.9,0.5-1.2c0-0.3-0.5-0.7-0.9-0.7l-4.4-0.6c-0.5-0.1-0.6,0.2-0.2,0.5l0.8,0.8c0.3,0.3,0.3,0.8-0.1,1.1L109,48.5l0,0
		c-1.5,1.3-5.5,4.2-12.5,4.4c-0.2,0-0.3,0-0.5,0c-3.5,0-6.8-1.3-9.7-3.8c-0.9-0.8-1.7-1.7-2.2-2.4c-5.5,1-9.8,2.9-13.4,4.4
		c-7,3-19.9,5.3-20.4,5.4l0,0c0,0,0,0,0,0c0,0-0.2-0.3-0.5-0.7L43,44.8c-0.2-0.4-0.1-0.9,0.4-1l9.1-3.4c0.4-0.2,0.5-0.4,0.2-0.6
		c-0.3-0.2-1-0.2-1.4,0L24,48.2c-0.4,0.1-0.4,0.3,0,0.3h2.5c0.5,0,1.2-0.1,1.7-0.2l8.8-2.5c0.5-0.1,0.9,0.1,1,0.6l3.1,13.5
		c0.1,0.5,0.6,0.9,1,1l4.1,1c0.5,0.1,1.2,0,1.6-0.2l1.3-0.7l0.8-0.4l0.1,0l1.2-0.7c15.6-0.7,26.7,4.2,26.7,4.2l0,0h0l-39.4,12
		c-0.5,0.1-1.2,0.2-1.7,0.2h-5.2c-0.5,0-0.5,0.1,0,0.2l6.5,1.5c0.5,0.1,1.2,0.1,1.7,0l56-13.3c19.8-1,25.1-8.1,25.1-8.1
		c0.4,0,0.7-0.1,1.1-0.2c0.1,3.3,0.4,5.7,0.8,5.7c0.4,0,0.7-2.6,0.8-6.2c2.8-1.1,3.8-3,3.8-3C126.4,51.7,124.9,51,123.6,50.7z"/>
	<path d="M96.4,51.9c4.3-0.2,7.5-1.4,9.3-2.4c0.7-0.4,1.3-0.8,1.8-1.1l-4.1-0.6c-7.2-1.8-13.2-1.9-18.2-1.1
		C87.1,48.8,90.9,52.1,96.4,51.9z"/>
</g>
</svg>
