<?xml version="1.0" encoding="utf-8"?>
<!-- Generator: Adobe Illustrator 18.1.1, SVG Export Plug-In . SVG Version: 6.00 Build 0)  -->
<!DOCTYPE svg PUBLIC "-//W3C//DTD SVG 1.1//EN" "http://www.w3.org/Graphics/SVG/1.1/DTD/svg11.dtd">
<svg version="1.1" id="Layer_1" xmlns="http://www.w3.org/2000/svg" xmlns:xlink="http://www.w3.org/1999/xlink" x="0px" y="0px"
	 viewBox="0 0 144 100" enable-background="new 0 0 144 100" width="144px" height="100px" xml:space="preserve" fill="#0a303b">
<g>
	<path d="M97.7,50.7c1.7-0.8,3.1-2.1,4.1-3.8c-3.3,0.4-7.8,1.4-13.1,4.1C90.9,51.6,94.5,52.1,97.7,50.7z"/>
	<path d="M123.8,57.4l-26.3-0.5c7.3-5.1,10.2-10,10.2-10s-1.7-0.4-4.8-0.2c-1.1,2.3-2.8,4-4.9,5c-1.6,0.7-3.4,1-5,1
		c-2.4,0-4.6-0.6-5.8-1c-1.5,0.9-3.1,1.9-4.8,3L18.8,37c-0.5-0.2-1.1-0.7-1.3-1.2l-0.5-1.6c-0.2-0.5-0.6-1-1-1s-0.8,0.4-0.9,1
		l-1.4,5.3c-0.1,0.5,0.2,1.2,0.7,1.4l58,22.8c-16.5,15.9-18.2,7.7-19.5,4.9c-0.6-1.4-1.4-3.4-1.4-3.4c-0.2-0.5-0.7-0.7-1.2-0.3
		l-1.7,1.3c-0.4,0.4-0.7,1.1-0.6,1.7l0.7,4h-6c-0.6,0-1.4,0.3-1.8,0.7L39.5,74c-0.4,0.4-0.3,0.7,0.3,0.8l9.4,0.4l1,5.7
		c0.1,0.6,0.6,0.8,1.1,0.6c0,0,15.1-7.6,29.9-16.1l39.1-5.4c0.6-0.1,1.4-0.4,1.9-0.7L124,58C124.5,57.7,124.4,57.4,123.8,57.4z"/>
</g>
</svg>
